PathFileType	4	(X/Y/Z)	33_2_7_p0_0-335_filt_butterworth.trc
DataRate	CameraRate	NumFrames	NumMarkers	Units	OrigDataRate	OrigDataStartFrame	OrigNumFrames
59.0	59.0	5	27	m	59.0	251	335
Frame#	Time	RHip			RKnee			RAnkle			RBigToe			RSmallToe			RHeel			LHip			LKnee			LAnkle			LBigToe			LSmallToe			LHeel			Neck			Head			Nose			RShoulder			RElbow			RWrist			RThumb			RIndex			RPinky			LShoulder			LElbow			LWrist			LThumb			LIndex			LPinky			
		X1	Y1	Z1	X2	Y2	Z2	X3	Y3	Z3	X4	Y4	Z4	X5	Y5	Z5	X6	Y6	Z6	X7	Y7	Z7	X8	Y8	Z8	X9	Y9	Z9	X10	Y10	Z10	X11	Y11	Z11	X12	Y12	Z12	X13	Y13	Z13	X14	Y14	Z14	X15	Y15	Z15	X16	Y16	Z16	X17	Y17	Z17	X18	Y18	Z18	X19	Y19	Z19	X20	Y20	Z20	X21	Y21	Z21	X22	Y22	Z22	X23	Y23	Z23	X24	Y24	Z24	X25	Y25	Z25	X26	Y26	Z26	X27	Y27	Z27	
251	4.254237288135593	0.3069896046547116	0.17665039130681176	0.08299828658564432	0.3204145016205763	0.38804201802997723	0.5007972867592303	0.28944657058757584	0.6887461782052443	0.907701230101186	0.2473192658710897	0.6861949874885944	1.0108710645606895	0.3211663182709331	0.6628169951176339	1.0042953477940895	0.27075252426552626	0.7353087152702118	0.9498925459358588	0.10606634325981995	0.16177964340619902	0.09959923662567072	0.06405432400850229	0.4287877652198377	0.5057920027060192	0.04377054886786681	0.7356176690399614	0.9338882279823215	0.09932753181347156	0.6398987526830888	1.0233573032217214	0.022240694435928354	0.6825093070320517	1.0160708827038556	0.061530289761827534	0.772040645618974	0.9685868794104592	0.22958584762688608	-0.03774168976653656	-0.45655328140735574	0.24277047513750183	-0.14951888654787573	-0.6341338529243873	0.25576477073625	-0.21551394290147408	-0.5059316531127649	0.3456203655295515	-0.005489406338244653	-0.3968992405836097	0.40011676331742013	-0.30713132287003164	-0.4947552971258157	0.3876195463457231	-0.4947889847308588	-0.6168860290294481	0.3286365881483971	-0.6139439495470422	-0.6272031734620876	0.3569102256306916	-0.62157328580729	-0.705113258094167	0.43909182550528414	-0.6178803734255579	-0.6758514664139724	0.06054186523120812	-0.004034414666471021	-0.34810615228797165	0.0015438395391149267	0.024063259183773947	-0.07758253583100096	0.1288924186158445	-0.15781176968814178	-0.08079413801103141	0.2116500666041113	-0.19312264656622735	-0.13820926281504956	0.21169570936999244	-0.20426283264329387	-0.1305371206943712	0.20285071333695814	-0.2120431793396822	-0.059664713086881156
252	4.271186440677966	0.30745215025485395	0.1802236182381602	0.08462952864344092	0.32226742160433525	0.38591736357660494	0.5020313263687027	0.2894221077305045	0.6909573335314367	0.9087916952243067	0.2499680973123139	0.6759773403399049	1.0103011550184715	0.3237582903132892	0.6529038826797045	1.0043235568458235	0.27125407051135314	0.7314885265298228	0.9480278750130429	0.10705420098396798	0.16528240360860913	0.10138244136746916	0.06138203751716231	0.43694419411600327	0.5106835967730942	0.042265892750926085	0.7139559216932105	0.9327280268282231	0.09867918663290841	0.6262635816940816	1.0189333126355538	0.023191104238128403	0.675682817162046	1.0142875332620351	0.0612848270973256	0.7660205340434824	0.9673937660563066	0.22916581970527813	-0.03659450660600424	-0.45517983090042174	0.2419939877758799	-0.14916067053856952	-0.6329845302692281	0.25398867375597217	-0.21508158809001526	-0.5060462182571612	0.34764982494475327	-0.003841578044576728	-0.39284584754661217	0.39710330329309346	-0.3067835078757377	-0.4943284945908429	0.3755200417267467	-0.4903782901798516	-0.6165417706800236	0.32511962292632157	-0.6127439619796005	-0.6256870326789803	0.34751114711689146	-0.6285876212853072	-0.6895856478554366	0.4307721278477599	-0.6226211700251878	-0.6696812256347213	0.06130021156362281	-0.0023880767513685774	-0.34560134572509194	0.001718476790239727	0.02396634997841506	-0.07335044620548532	0.12898112405831647	-0.1554043678820697	-0.07597941161245478	0.21203677531978954	-0.19084284365909895	-0.13085299888571653	0.21109151418021574	-0.20836555367948897	-0.11946772772775589	0.2043209958499764	-0.21063839253991457	-0.053690595022726675
253	4.288135593220339	0.30805466918473895	0.18415620414562464	0.085157700748412	0.3231424850437592	0.384059331418224	0.5008511600416761	0.28944283214162836	0.6969027696700199	0.9087621336064714	0.2533383309487859	0.6688079901611724	1.009813644686624	0.3268019551905811	0.6448288114996105	1.0038996727030525	0.2724843702556846	0.7297343278484587	0.946021044325942	0.10816110420784569	0.16876374996977905	0.10182239386010013	0.05927207760562862	0.44188625908210233	0.5119412088318781	0.04190462154733459	0.6927038971163844	0.9320249924856432	0.09817819668045831	0.6159596220445495	1.0148814448315855	0.024102260287465975	0.6690570726502407	1.0130512959426676	0.06151913777862648	0.7586575137086056	0.9666000982556573	0.22893828171749125	-0.03609398963655838	-0.4541553124756516	0.24204771248344245	-0.14554074425501598	-0.6336439066995104	0.25370640555745066	-0.21474021813604988	-0.5061233174167992	0.3506124687573616	0.001206293306094516	-0.3900149382723773	0.3947773249116211	-0.3055387092830103	-0.49204838541612694	0.3664843494148321	-0.48380793422909457	-0.6165303633359095	0.32191343225908786	-0.6118235324693093	-0.6251970424172337	0.34055098163796327	-0.633959575233692	-0.6757393313693484	0.4265120503065843	-0.6238044594895972	-0.6665924829049621	0.061715917302112636	-0.00157544692105054	-0.34387734742269305	0.002161628481147741	0.025747677627880237	-0.072693484507965	0.1282624089791646	-0.1543009808896346	-0.07093035260693985	0.21371182582793144	-0.190793372067255	-0.12082966121600375	0.2107616566623693	-0.21622064386527046	-0.10652943652775815	0.20481857170950285	-0.20917957086344013	-0.04691006896361523
254	4.305084745762712	0.30902441836562883	0.18675898000271257	0.08429671303455671	0.3236640066552944	0.38485074899590754	0.4991094661709525	0.29080414783537367	0.7030438054067527	0.9084292065842511	0.2552822648311995	0.6662014776432754	1.008982122669926	0.3293640701221932	0.6420137604705844	1.0033532530667137	0.2751827550033209	0.7335180374488717	0.9450488307626739	0.10921402273794484	0.17202704743118716	0.10059046260815624	0.058458274401057816	0.4433088592612048	0.5117727956443486	0.04275430173540786	0.6823648395474	0.9320691722169516	0.09807159489500576	0.6132693633630661	1.013085851950486	0.024761471792274767	0.6667404040119155	1.0126943777919855	0.06300092653086044	0.7529565943264075	0.9662983306560634	0.2287866468598888	-0.03623043259249013	-0.4539240515973484	0.24256835552397044	-0.1402320326927622	-0.6355277201869427	0.2539086119213789	-0.21438710884357604	-0.5063134500867874	0.3543189806330843	0.005029905016017417	-0.38868948282464877	0.39269684782438147	-0.3038972911976026	-0.4878629224272052	0.36184889362117406	-0.4779944460842269	-0.6166146619807203	0.3197611593699376	-0.6119992374655476	-0.6253880996281871	0.3368983259376289	-0.6367942842438781	-0.6678099708774227	0.42366075850693763	-0.6238435486814389	-0.6653757161388891	0.061687545820759804	-0.0007755101402370016	-0.3427942265760072	0.0029459898508883598	0.03201122797302388	-0.076535408356727	0.12644316022172258	-0.15277419051295377	-0.06668106104235813	0.2145745636096073	-0.1900454978682943	-0.10919456970297718	0.2097894599143187	-0.22129542453676104	-0.09324814924408478	0.20442759457398552	-0.2038975384919106	-0.038311265846036606
255	4.322033898305085	0.3104340596224603	0.1875002466832954	0.08288042559162434	0.3240369651899203	0.38935572431152615	0.4984031017387238	0.292992802601849	0.7081431448954565	0.9082202842078404	0.25536201245649837	0.6666905525758737	1.0077452079723606	0.3308437440510922	0.6413678365694565	1.0030174168489903	0.2785832451457957	0.7433817866743895	0.9449448395935401	0.10992256326330731	0.17518930702199825	0.09816838180305583	0.05853383366631246	0.442617425061293	0.5115600576377893	0.04458880744583414	0.6823996371830813	0.9327906204418744	0.0990535731244908	0.618552238388123	1.0133196128095558	0.025812609260790022	0.6678383486723103	1.012843045513432	0.06513348390432849	0.7505631590899344	0.9664640502813399	0.22881078811827898	-0.036943185311603434	-0.4545456623984898	0.2433494130277834	-0.13543499630082775	-0.6375607008691548	0.2540203356730298	-0.2141104967981402	-0.5066014257705616	0.3580535097121702	0.004871273701474241	-0.387871463688042	0.3908221526291219	-0.30268733753646954	-0.48387349568150206	0.36097697115109095	-0.47480157338575807	-0.6161441804146258	0.31918692717357194	-0.6134330757816289	-0.6251125024298841	0.3357274529287819	-0.6374176843396958	-0.6652314972097605	0.419468431756416	-0.62237297242656	-0.6655127632322624	0.06164722332350813	-0.0008089746095724704	-0.3421887277159639	0.004189492635687829	0.042145286871920394	-0.08368625604608686	0.12431979129196864	-0.14928987693451234	-0.06392387083395361	0.2130219362048581	-0.18819320307354986	-0.09636607760049679	0.20867348322768292	-0.22313719328058781	-0.07931987814067626	0.20426424672374846	-0.19252943454333593	-0.030614695704533217
